<?xml version="1.0" encoding="UTF-8" standalone="no"?>
<svg
   xmlns:dc="http://purl.org/dc/elements/1.1/"
   xmlns:cc="http://creativecommons.org/ns#"
   xmlns:rdf="http://www.w3.org/1999/02/22-rdf-syntax-ns#"
   xmlns:svg="http://www.w3.org/2000/svg"
   xmlns="http://www.w3.org/2000/svg"
   xmlns:sodipodi="http://sodipodi.sourceforge.net/DTD/sodipodi-0.dtd"
   xmlns:inkscape="http://www.inkscape.org/namespaces/inkscape"
   fill="#D01911"
   version="1.1"
   x="0px"
   y="0px"
   viewBox="0 0 24 26"
   style="enable-background:new 0 0 24 26;"
   xml:space="preserve"
   id="svg3761"
   sodipodi:docname="subtle_rp.svg"
   inkscape:version="0.92.2 5c3e80d, 2017-08-06"><metadata
     id="metadata3767"><rdf:RDF><cc:Work
         rdf:about=""><dc:format>image/svg+xml</dc:format><dc:type
           rdf:resource="http://purl.org/dc/dcmitype/StillImage" /><dc:title></dc:title></cc:Work></rdf:RDF></metadata><defs
     id="defs3765" /><sodipodi:namedview
     pagecolor="#ffffff"
     bordercolor="#666666"
     borderopacity="1"
     objecttolerance="10"
     gridtolerance="10"
     guidetolerance="10"
     inkscape:pageopacity="0"
     inkscape:pageshadow="2"
     inkscape:window-width="1366"
     inkscape:window-height="741"
     id="namedview3763"
     showgrid="false"
     inkscape:zoom="14.767653"
     inkscape:cx="0.78870659"
     inkscape:cy="9.6905642"
     inkscape:window-x="0"
     inkscape:window-y="27"
     inkscape:window-maximized="1"
     inkscape:current-layer="svg3761" /><g
     id="g3759"><path
       d="M22,6H2C0.896,6,0,6.896,0,8v16c0,1.104,0.896,2,2,2h20c1.104,0,2-0.896,2-2V8C24,6.896,23.104,6,22,6z M4.5,23   C3.672,23,3,22.328,3,21.5S3.672,20,4.5,20S6,20.672,6,21.5S5.328,23,4.5,23z M9.5,23C8.672,23,8,22.328,8,21.5S8.672,20,9.5,20   c0.828,0,1.5,0.672,1.5,1.5S10.328,23,9.5,23z M14.5,23c-0.828,0-1.5-0.672-1.5-1.5s0.672-1.5,1.5-1.5c0.828,0,1.5,0.672,1.5,1.5   S15.328,23,14.5,23z M19.5,23c-0.828,0-1.5-0.672-1.5-1.5s0.672-1.5,1.5-1.5c0.828,0,1.5,0.672,1.5,1.5S20.328,23,19.5,23z"
       id="path3753" /><rect
       x="2"
       y="3"
       width="20"
       height="1"
       id="rect3755" /><rect
       x="4"
       width="16"
       height="1"
       id="rect3757" /></g><text
     xml:space="preserve"
     style="font-style:normal;font-variant:normal;font-weight:normal;font-stretch:normal;font-size:18.66666603px;line-height:1.25;font-family:Power;-inkscape-font-specification:Power;letter-spacing:0px;word-spacing:0px;fill:#ffffff;fill-opacity:1;stroke:none;stroke-width:0.29202098"
     x="3.684155"
     y="22.192213"
     id="text3771"
     transform="scale(1.2796604,0.78145734)"><tspan
       sodipodi:role="line"
       id="tspan3769"
       x="3.684155"
       y="22.192213"
       style="font-style:normal;font-variant:normal;font-weight:normal;font-stretch:normal;font-size:18.66666603px;font-family:Power;-inkscape-font-specification:Power;fill:#ffffff;stroke-width:0.29202098">S</tspan></text>
</svg>