<svg fill="#B21810" xmlns="http://www.w3.org/2000/svg" xmlns:xlink="http://www.w3.org/1999/xlink" version="1.1" x="0px" y="0px" viewBox="0 0 25 25" enable-background="new 0 0 25 25" xml:space="preserve"><g><path d="M20,6.5h-6.232l-1.852-2.777C11.823,3.584,11.667,3.5,11.5,3.5H5C3.622,3.5,2.5,4.621,2.5,6v13c0,1.379,1.122,2.5,2.5,2.5   h15c1.378,0,2.5-1.121,2.5-2.5V9C22.5,7.621,21.378,6.5,20,6.5z M10.5,7.5H5C4.724,7.5,4.5,7.276,4.5,7S4.724,6.5,5,6.5h5.5   C10.776,6.5,11,6.724,11,7S10.776,7.5,10.5,7.5z"></path></g></svg>