<?xml version="1.0" encoding="UTF-8" standalone="no"?>
<svg
   xmlns:dc="http://purl.org/dc/elements/1.1/"
   xmlns:cc="http://creativecommons.org/ns#"
   xmlns:rdf="http://www.w3.org/1999/02/22-rdf-syntax-ns#"
   xmlns:svg="http://www.w3.org/2000/svg"
   xmlns="http://www.w3.org/2000/svg"
   height="100%"
   width="100%"
   version="1.1"
   id="svg3013"
   viewBox="0 -256 1792 1792">
  <metadata
     id="metadata3023">
    <rdf:RDF>
      <cc:Work
         rdf:about="">
        <dc:format>image/svg+xml</dc:format>
        <dc:type
           rdf:resource="http://purl.org/dc/dcmitype/StillImage" />
        <dc:title></dc:title>
      </cc:Work>
    </rdf:RDF>
  </metadata>
  <defs
     id="defs3021" />
  <g
     style="fill:#d01911;fill-opacity:1"
     id="g3015"
     transform="matrix(1,0,0,-1,113.89831,1293.0169)">
    <path
       style="fill:#d01911;fill-opacity:1"
       id="path3017"
       d="m 1120,608 q 0,-12 -10,-24 L 791,265 q -9,-9 -23,-9 -14,0 -23,9 L 425,585 q -9,9 -9,23 0,13 9.5,22.5 9.5,9.5 22.5,9.5 h 192 v 352 q 0,13 9.5,22.5 9.5,9.5 22.5,9.5 h 192 q 13,0 22.5,-9.5 Q 896,1005 896,992 V 640 h 192 q 14,0 23,-9 9,-9 9,-23 z m 160,32 q 0,104 -40.5,198.5 Q 1199,933 1130,1002 1061,1071 966.5,1111.5 872,1152 768,1152 664,1152 569.5,1111.5 475,1071 406,1002 337,933 296.5,838.5 256,744 256,640 256,536 296.5,441.5 337,347 406,278 475,209 569.5,168.5 664,128 768,128 872,128 966.5,168.5 1061,209 1130,278 1199,347 1239.5,441.5 1280,536 1280,640 z m 256,0 Q 1536,431 1433,254.5 1330,78 1153.5,-25 977,-128 768,-128 559,-128 382.5,-25 206,78 103,254.5 0,431 0,640 0,849 103,1025.5 206,1202 382.5,1305 559,1408 768,1408 977,1408 1153.5,1305 1330,1202 1433,1025.5 1536,849 1536,640 z" />
  </g>
</svg>
