<svg fill="#C1C1C1" xmlns="http://www.w3.org/2000/svg" xmlns:xlink="http://www.w3.org/1999/xlink" version="1.1" x="0px" y="0px" viewBox="0 0 100 100" enable-background="new 0 0 100 100" xml:space="preserve"><g><rect y="14" width="100" height="4"></rect><path d="M29.366,55.336V32.555h4.729v8.686h8.856v-8.686h4.729v22.781h-4.729V45.167h-8.856v10.169H29.366z"></path><path d="M65.605,33.049c1.598,0.525,2.892,1.489,3.883,2.891c0.793,1.133,1.334,2.359,1.624,3.678   c0.288,1.319,0.433,2.576,0.433,3.771c0,3.03-0.607,5.595-1.824,7.696c-1.653,2.834-4.198,4.251-7.643,4.251h-9.821V32.555h9.821   C63.49,32.575,64.665,32.74,65.605,33.049z M56.876,36.511v14.868h4.396c2.252,0,3.82-1.107,4.708-3.322   c0.484-1.215,0.728-2.664,0.728-4.343c0-2.318-0.365-4.099-1.092-5.34c-0.728-1.241-2.174-1.862-4.344-1.862H56.876z"></path><rect x="43" y="73" width="14" height="6"></rect><rect x="32" y="79" width="36" height="5"></rect><rect y="69" width="100" height="4"></rect><rect y="14" width="4" height="59"></rect><rect x="96" y="14" width="4" height="59"></rect></g></svg>