<svg fill="#C1C1C1" xmlns="http://www.w3.org/2000/svg" xmlns:xlink="http://www.w3.org/1999/xlink" xml:space="preserve" version="1.0" style="shape-rendering:geometricPrecision;text-rendering:geometricPrecision;image-rendering:optimizeQuality;" viewBox="0 0 400 400" x="0px" y="0px" fill-rule="evenodd" clip-rule="evenodd"><defs><style type="text/css">
   
    .fil0 {fill:#C1C1C1;fill-rule:nonzero}
   
  </style></defs><g><path class="fil0" d="M300 30l-200 347 -34 -20 145 -252c-4,-1 -8,-1 -12,-1 -18,0 -34,7 -46,19 -5,4 -8,9 -11,15l-17 -9c4,-7 8,-14 14,-20 15,-15 36,-24 60,-24 8,0 15,1 22,3l11 -18c-11,-4 -22,-6 -33,-6 -29,0 -55,12 -74,31 -17,17 -27,39 -30,62l-29 -18c6,-25 19,-48 37,-66 24,-24 58,-40 96,-40 17,0 33,4 48,9l19 -32 34 20zm-31 93c9,13 14,29 14,46 0,23 -10,44 -25,59l-13 -13c11,-12 19,-28 19,-46 0,-10 -2,-18 -6,-27l11 -19zm28 -48c23,25 37,58 37,94 0,26 -8,51 -21,72 -34,55 -13,149 -113,149 -25,0 -48,-10 -65,-27 -1,-1 -2,-2 -3,-3l17 -29c2,4 5,7 8,10 11,11 26,18 43,18 68,0 53,-80 87,-134 10,-17 16,-36 16,-56 0,-25 -8,-47 -23,-65l17 -29z"></path></g></svg>