<?xml version="1.0" encoding="UTF-8" standalone="no"?>
<svg
   xmlns:dc="http://purl.org/dc/elements/1.1/"
   xmlns:cc="http://creativecommons.org/ns#"
   xmlns:rdf="http://www.w3.org/1999/02/22-rdf-syntax-ns#"
   xmlns:svg="http://www.w3.org/2000/svg"
   xmlns="http://www.w3.org/2000/svg"
   fill="#ffffff"
   version="1.1"
   x="0px"
   y="0px"
   viewBox="0 0 24 26"
   style="enable-background:new 0 0 24 26;"
   xml:space="preserve"
   id="svg3761"><metadata
     id="metadata3767"><rdf:RDF><cc:Work
         rdf:about=""><dc:format>image/svg+xml</dc:format><dc:type
           rdf:resource="http://purl.org/dc/dcmitype/StillImage" /><dc:title></dc:title></cc:Work></rdf:RDF></metadata><defs
     id="defs3765" /><path
     id="path3753"
     d="M 2 6 C 0.896 6 0 6.896 0 8 L 0 24 C 0 25.104 0.896 26 2 26 L 22 26 C 23.104 26 24 25.104 24 24 L 24 8 C 24 6.896 23.104 6 22 6 L 2 6 z M 18.617188 8.4433594 C 18.426092 8.9879482 18.21904 9.5276355 17.996094 10.0625 C 17.789074 10.587639 17.557529 11.113533 17.302734 11.638672 C 17.143487 11.658119 16.983465 11.667969 16.824219 11.667969 C 16.664972 11.658242 16.506903 11.652344 16.347656 11.652344 L 15.082031 11.652344 C 14.652065 11.642617 14.228494 11.615026 13.814453 11.566406 C 13.814453 11.342736 13.887928 11.128049 14.03125 10.923828 C 13.951629 10.836305 13.848103 10.763427 13.720703 10.705078 C 13.593306 10.637004 13.440797 10.603516 13.265625 10.603516 C 13.074529 10.603516 12.906993 10.660646 12.763672 10.777344 C 12.62035 10.884317 12.548828 10.992637 12.548828 11.099609 C 12.548828 11.157956 12.588345 11.220987 12.667969 11.289062 C 12.763517 11.357136 12.867044 11.424113 12.978516 11.492188 C 13.105914 11.550534 13.233931 11.609618 13.361328 11.667969 C 13.488725 11.726315 13.584738 11.775552 13.648438 11.814453 C 13.871382 11.882526 14.078435 11.969199 14.269531 12.076172 C 14.476552 12.17342 14.676092 12.269939 14.867188 12.367188 C 15.217531 12.542234 15.528109 12.697838 15.798828 12.833984 C 16.069547 12.960407 16.291626 13.102215 16.466797 13.257812 C 16.657893 13.403685 16.793424 13.578982 16.873047 13.783203 C 16.968595 13.977699 17.015625 14.225875 17.015625 14.527344 C 17.015625 15.091382 16.818039 15.568039 16.419922 15.957031 C 16.03773 16.336299 15.527611 16.647506 14.890625 16.890625 C 14.253638 17.12402 13.536468 17.293417 12.740234 17.400391 C 11.959926 17.507363 11.180699 17.560547 10.400391 17.560547 C 10.209295 17.560547 9.8667112 17.556602 9.3730469 17.546875 C 8.8793823 17.537148 8.361751 17.527298 7.8203125 17.517578 L 6.3632812 17.517578 C 5.9173908 17.517578 5.6463292 17.527428 5.5507812 17.546875 L 5.3828125 17.386719 C 5.6694564 17.036626 5.8689961 16.670283 5.9804688 16.291016 C 6.0919414 15.902024 6.2594765 15.52384 6.4824219 15.154297 C 6.8486891 15.105677 7.2138109 15.085983 7.5800781 15.095703 L 8.703125 15.095703 L 9.3007812 15.095703 C 9.5555758 15.095703 9.8096583 15.091758 10.064453 15.082031 C 10.335172 15.062585 10.591208 15.042891 10.830078 15.023438 C 11.068947 15.003991 11.243996 14.968549 11.355469 14.919922 C 11.578414 14.910195 11.753462 14.853064 11.880859 14.746094 C 12.008257 14.63912 12.072266 14.522906 12.072266 14.396484 C 12.072266 14.318686 12.040263 14.245808 11.976562 14.177734 C 11.912863 14.099936 11.824362 14.040852 11.712891 14.001953 C 11.378474 13.739382 10.973834 13.505002 10.496094 13.300781 C 10.034279 13.086835 9.5881691 12.868201 9.1582031 12.644531 C 8.7282373 12.420861 8.3611623 12.178586 8.0585938 11.916016 C 7.7560252 11.643722 7.6054687 11.31282 7.6054688 10.923828 C 7.6054687 10.758506 7.6769906 10.563514 7.8203125 10.339844 C 7.9795591 10.116174 8.1301156 9.9369285 8.2734375 9.8007812 C 8.5600814 9.5284867 8.8951518 9.3098527 9.2773438 9.1445312 C 9.6595356 8.9694848 10.073641 8.8335763 10.519531 8.7363281 C 10.965422 8.6390799 11.426557 8.5760494 11.904297 8.546875 C 12.397962 8.5177003 12.891101 8.5019531 13.384766 8.5019531 C 13.814732 8.5019531 14.245815 8.5078515 14.675781 8.5175781 C 15.121671 8.5273048 15.558315 8.53125 15.988281 8.53125 C 16.434172 8.53125 16.872768 8.5273048 17.302734 8.5175781 C 17.748625 8.5078515 18.187221 8.4822547 18.617188 8.4433594 z M 4.5 20 C 5.328 20 6 20.672 6 21.5 C 6 22.328 5.328 23 4.5 23 C 3.672 23 3 22.328 3 21.5 C 3 20.672 3.672 20 4.5 20 z M 9.5 20 C 10.328 20 11 20.672 11 21.5 C 11 22.328 10.328 23 9.5 23 C 8.672 23 8 22.328 8 21.5 C 8 20.672 8.672 20 9.5 20 z M 14.5 20 C 15.328 20 16 20.672 16 21.5 C 16 22.328 15.328 23 14.5 23 C 13.672 23 13 22.328 13 21.5 C 13 20.672 13.672 20 14.5 20 z M 19.5 20 C 20.328 20 21 20.672 21 21.5 C 21 22.328 20.328 23 19.5 23 C 18.672 23 18 22.328 18 21.5 C 18 20.672 18.672 20 19.5 20 z " /><path
     d="M 2,3 H 22 V 4 H 2 Z"
     id="rect3755" /><path
     d="M 4,0 H 20 V 1 H 4 Z"
     id="rect3757" /></svg>